<svg width="62" height="62" xmlns="http://www.w3.org/2000/svg">
 <g>
  <circle fill="#fff" stroke="#c82128" stroke-width="2" cx="31" cy="31" r="28"/>
  <path stroke="#c82128" d="m51.32332,35.52777c0,2.44158 -1.93611,4.48328 -4.53965,5.07413c-0.42289,-0.98817 -1.41252,-1.77255 -2.69272,-2.04811c-0.13233,-0.0282 -0.38981,-0.08587 -0.73359,-0.16405c0.0187,-0.16149 0.05466,-0.31658 0.05466,-0.48191c0,-2.64409 -2.4223,-4.79601 -5.39695,-4.79601c-0.2848,0 -0.56386,0.02307 -0.83572,0.06023c-0.98675,-2.28393 -3.45652,-3.9155 -6.36356,-3.9155c-3.76722,0 -6.83249,2.73124 -6.83249,6.08794c0,0.58572 0.12227,1.14197 0.29776,1.67899c-1.8383,0.54086 -3.16452,1.98018 -3.16452,3.68608l0.01007,0.08203l-2.6956,0c-4.07072,0 -7.3834,-2.87479 -7.3834,-6.40836c0,-2.77097 2.04975,-5.11515 4.89206,-6.00719c-0.3668,-0.92921 -0.57681,-1.92379 -0.57681,-2.96451c0,-4.94597 4.51664,-8.9717 10.06893,-8.9717c5.2042,0 9.49788,3.53614 10.01571,8.05146c0.69044,-0.22685 1.43123,-0.36143 2.21085,-0.36143c3.56871,0 6.47288,2.5877 6.47288,5.76752l-0.00719,0.06537c1.30608,0.21532 2.30291,0.38706 2.66107,0.46781c2.67115,0.60238 4.53821,2.69792 4.53821,5.09721l0,0zm-7.59341,4.36152c-0.22727,-0.05767 -1.04861,-0.26402 -2.12167,-0.52805c0.22871,-0.44474 0.36536,-0.93433 0.36536,-1.45341c0,-1.93789 -1.77501,-3.51306 -3.95996,-3.51306c-0.67894,0 -1.30609,0.16405 -1.86276,0.4332c-0.29343,-2.40441 -2.55894,-4.28975 -5.33509,-4.28975c-2.97465,0 -5.39407,2.15705 -5.39407,4.80627c0,1.04328 0.3855,2.00325 1.02128,2.79276c-0.19419,0.00513 -0.39701,0.0141 -0.57968,0.0141c-1.82392,0 -3.30837,1.45598 -3.30837,3.24391c0,1.78665 1.48445,3.24134 3.30837,3.24134l17.24519,0c1.35643,0 2.46114,-1.08301 2.46114,-2.4121c0,-1.09968 -0.75661,-2.05965 -1.83974,-2.33521l0,0z" stroke-width="2" fill="white"/>
 </g>
</svg>